<?xml version="1.0" encoding="us-ascii" standalone="no"?><svg xmlns="http://www.w3.org/2000/svg" xmlns:xlink="http://www.w3.org/1999/xlink" contentStyleType="text/css" height="353px" preserveAspectRatio="none" style="width:701px;height:353px;background:#FFFFFF;" version="1.1" viewBox="0 0 701 353" width="701px" zoomAndPan="magnify"><defs/><g><g id="Controller"><rect fill="#F1F1F1" height="55.412" rx="12.5" ry="12.5" style="stroke:#181818;stroke-width:0.5;" width="87" x="29" y="61.63"/><line style="stroke:#181818;stroke-width:0.5;" x1="29" x2="116" y1="90.6979" y2="90.6979"/><text fill="#000000" font-family="sans-serif" font-size="14" lengthAdjust="spacing" textLength="67" x="39" y="81.5959">Controller</text><text fill="#000000" font-family="sans-serif" font-size="12" lengthAdjust="spacing" textLength="3" x="34" y="108.526">&#160;</text></g><g id="UseCase"><rect fill="#F1F1F1" height="55.412" rx="12.5" ry="12.5" style="stroke:#181818;stroke-width:0.5;" width="77" x="151" y="61.63"/><line style="stroke:#181818;stroke-width:0.5;" x1="151" x2="228" y1="90.6979" y2="90.6979"/><text fill="#000000" font-family="sans-serif" font-size="14" lengthAdjust="spacing" textLength="57" x="161" y="81.5959">UseCase</text><text fill="#000000" font-family="sans-serif" font-size="12" lengthAdjust="spacing" textLength="3" x="156" y="108.526">&#160;</text></g><g id="DistributedResourceSync"><rect fill="#F1F1F1" height="50" rx="12.5" ry="12.5" style="stroke:#181818;stroke-width:0.5;" width="189" x="7" y="179.13"/><line style="stroke:#181818;stroke-width:0.5;" x1="7" x2="196" y1="208.1979" y2="208.1979"/><text fill="#000000" font-family="sans-serif" font-size="14" lengthAdjust="spacing" textLength="169" x="17" y="199.0959">DistributedResourceSync</text></g><g id="KVS"><rect fill="#F1F1F1" height="55.412" rx="12.5" ry="12.5" style="stroke:#181818;stroke-width:0.5;" width="50" x="76.5" y="291.63"/><line style="stroke:#181818;stroke-width:0.5;" x1="76.5" x2="126.5" y1="320.6979" y2="320.6979"/><text fill="#000000" font-family="sans-serif" font-size="14" lengthAdjust="spacing" textLength="25" x="89" y="311.5959">KVS</text><text fill="#000000" font-family="sans-serif" font-size="12" lengthAdjust="spacing" textLength="30" x="81.5" y="338.526">Redis</text></g><g id="Repository"><rect fill="#F1F1F1" height="55.412" rx="12.5" ry="12.5" style="stroke:#181818;stroke-width:0.5;" width="91" x="231" y="176.63"/><line style="stroke:#181818;stroke-width:0.5;" x1="231" x2="322" y1="205.6979" y2="205.6979"/><text fill="#000000" font-family="sans-serif" font-size="14" lengthAdjust="spacing" textLength="71" x="241" y="196.5959">Repository</text><text fill="#000000" font-family="sans-serif" font-size="12" lengthAdjust="spacing" textLength="3" x="236" y="223.526">&#160;</text></g><g id="Database"><rect fill="#F1F1F1" height="55.412" rx="12.5" ry="12.5" style="stroke:#181818;stroke-width:0.5;" width="83" x="235" y="291.63"/><line style="stroke:#181818;stroke-width:0.5;" x1="235" x2="318" y1="320.6979" y2="320.6979"/><text fill="#000000" font-family="sans-serif" font-size="14" lengthAdjust="spacing" textLength="63" x="245" y="311.5959">Database</text><text fill="#000000" font-family="sans-serif" font-size="12" lengthAdjust="spacing" textLength="49" x="240" y="338.526">Postgres</text></g><g id="EventDispatcher"><rect fill="#F1F1F1" height="55.412" rx="12.5" ry="12.5" style="stroke:#181818;stroke-width:0.5;" width="130" x="263.5" y="61.63"/><line style="stroke:#181818;stroke-width:0.5;" x1="263.5" x2="393.5" y1="90.6979" y2="90.6979"/><text fill="#000000" font-family="sans-serif" font-size="14" lengthAdjust="spacing" textLength="110" x="273.5" y="81.5959">EventDispatcher</text><text fill="#000000" font-family="sans-serif" font-size="12" lengthAdjust="spacing" textLength="31" x="268.5" y="108.526">Kafka</text></g><g id="KafkaTopic"><rect fill="#F1F1F1" height="55.412" rx="12.5" ry="12.5" style="stroke:#181818;stroke-width:0.5;" width="93" x="429" y="61.63"/><line style="stroke:#181818;stroke-width:0.5;" x1="429" x2="522" y1="90.6979" y2="90.6979"/><text fill="#000000" font-family="sans-serif" font-size="14" lengthAdjust="spacing" textLength="73" x="439" y="81.5959">KafkaTopic</text><text fill="#000000" font-family="sans-serif" font-size="12" lengthAdjust="spacing" textLength="3" x="434" y="108.526">&#160;</text></g><g id="KafkaConnect"><rect fill="#F1F1F1" height="55.412" rx="12.5" ry="12.5" style="stroke:#181818;stroke-width:0.5;" width="137" x="557" y="61.63"/><line style="stroke:#181818;stroke-width:0.5;" x1="557" x2="694" y1="90.6979" y2="90.6979"/><text fill="#000000" font-family="sans-serif" font-size="14" lengthAdjust="spacing" textLength="92" x="579.5" y="81.5959">KafkaConnect</text><text fill="#000000" font-family="sans-serif" font-size="12" lengthAdjust="spacing" textLength="117" x="562" y="108.526">HTTP Sink Connector</text></g><!--link Controller to UseCase--><g id="link_Controller_UseCase"><path d="M116.38,89.13 C125.66,89.13 134.94,89.13 144.23,89.13 " fill="none" id="Controller-to-UseCase" style="stroke:#181818;stroke-width:1.0;"/><polygon fill="#181818" points="149.14,89.13,140.14,85.13,144.14,89.13,140.14,93.13,149.14,89.13" style="stroke:#181818;stroke-width:1.0;"/></g><!--link UseCase to DistributedResourceSync--><g id="link_UseCase_DistributedResourceSync"><path d="M168.65,116.91 C155.27,134.09 137.89,156.4 124.17,174.02 " fill="none" id="UseCase-to-DistributedResourceSync" style="stroke:#181818;stroke-width:1.0;"/><polygon fill="#181818" points="121.34,177.66,130.0264,173.0181,124.4127,173.7155,123.7152,168.1019,121.34,177.66" style="stroke:#181818;stroke-width:1.0;"/></g><!--link DistributedResourceSync to KVS--><g id="link_DistributedResourceSync_KVS"><path d="M101.5,229.37 C101.5,245.54 101.5,267.02 101.5,284.79 " fill="none" id="DistributedResourceSync-to-KVS" style="stroke:#181818;stroke-width:1.0;"/><polygon fill="#181818" points="101.5,289.64,105.5,280.64,101.5,284.64,97.5,280.64,101.5,289.64" style="stroke:#181818;stroke-width:1.0;"/></g><!--link UseCase to Repository--><g id="link_UseCase_Repository"><path d="M210.12,116.91 C222.7,133.26 238.86,154.24 252.08,171.42 " fill="none" id="UseCase-to-Repository" style="stroke:#181818;stroke-width:1.0;"/><polygon fill="#181818" points="254.81,174.95,252.4731,165.3824,251.7532,170.9933,246.1423,170.2733,254.81,174.95" style="stroke:#181818;stroke-width:1.0;"/></g><!--link Repository to Database--><g id="link_Repository_Database"><path d="M276.5,231.91 C276.5,247.7 276.5,267.81 276.5,284.64 " fill="none" id="Repository-to-Database" style="stroke:#181818;stroke-width:1.0;"/><polygon fill="#181818" points="276.5,289.64,280.5,280.64,276.5,284.64,272.5,280.64,276.5,289.64" style="stroke:#181818;stroke-width:1.0;"/></g><!--link UseCase to EventDispatcher--><g id="link_UseCase_EventDispatcher"><path d="M228.32,89.13 C237.85,89.13 247.37,89.13 256.89,89.13 " fill="none" id="UseCase-to-EventDispatcher" style="stroke:#181818;stroke-width:1.0;"/><polygon fill="#181818" points="261.64,89.13,252.64,85.13,256.64,89.13,252.64,93.13,261.64,89.13" style="stroke:#181818;stroke-width:1.0;"/></g><!--link EventDispatcher to KafkaTopic--><g id="link_EventDispatcher_KafkaTopic"><path d="M393.96,89.13 C403.36,89.13 412.77,89.13 422.17,89.13 " fill="none" id="EventDispatcher-to-KafkaTopic" style="stroke:#181818;stroke-width:1.0;"/><polygon fill="#181818" points="427.17,89.13,418.17,85.13,422.17,89.13,418.17,93.13,427.17,89.13" style="stroke:#181818;stroke-width:1.0;"/></g><!--link KafkaTopic to KafkaConnect--><g id="link_KafkaTopic_KafkaConnect"><path d="M522.38,89.13 C531.65,89.13 540.92,89.13 550.2,89.13 " fill="none" id="KafkaTopic-to-KafkaConnect" style="stroke:#181818;stroke-width:1.0;"/><polygon fill="#181818" points="555.1,89.13,546.1,85.13,550.1,89.13,546.1,93.13,555.1,89.13" style="stroke:#181818;stroke-width:1.0;"/></g><!--link KafkaConnect to Controller--><g id="link_KafkaConnect_Controller"><path d="M586.72,61.41 C568.09,49.77 544.88,37.56 522,31.63 C442.19,10.95 229.36,6 151,31.63 C134.84,36.92 119.25,46.93 106.29,57.14 " fill="none" id="KafkaConnect-to-Controller" style="stroke:#181818;stroke-width:1.0;"/><polygon fill="#181818" points="102.44,60.26,111.9531,57.7102,106.3276,57.1157,106.9221,51.4901,102.44,60.26" style="stroke:#181818;stroke-width:1.0;"/></g><!--SRC=[TK-x3eCm3Dpz5Va1VY032wrKYGK1xHw2sqQW62Mc4d_VKDv8dNm-stU-X2mxQbjq8eh5tMEYFC9SHHIuY_7iJDKprZbwwft6Oh0Q_l2_c_HH73HoxCWR9ZV01YTrnQewMCRY-a7BGRvJhD_euDIFAwbwDggapcZOu3f8o5hK3Fjc72PhM80DoyLRxfwJPrSvIU_i92pFIv6HvvT33o6v375hum_kKjpACXE5iOsOANBm1G00]--></g></svg>