<?xml version="1.0" encoding="us-ascii" standalone="no"?><svg xmlns="http://www.w3.org/2000/svg" xmlns:xlink="http://www.w3.org/1999/xlink" contentStyleType="text/css" height="751px" preserveAspectRatio="none" style="width:985px;height:751px;background:#FFFFFF;" version="1.1" viewBox="0 0 985 751" width="985px" zoomAndPan="magnify"><defs/><g><g id="Controller"><rect fill="#F1F1F1" height="55.412" rx="12.5" ry="12.5" style="stroke:#181818;stroke-width:0.5;" width="87" x="597.5" y="690"/><line style="stroke:#181818;stroke-width:0.5;" x1="597.5" x2="684.5" y1="719.0679" y2="719.0679"/><text fill="#000000" font-family="sans-serif" font-size="14" lengthAdjust="spacing" textLength="67" x="607.5" y="709.9659">Controller</text><text fill="#000000" font-family="sans-serif" font-size="12" lengthAdjust="spacing" textLength="3" x="602.5" y="736.896">&#160;</text></g><g id="UseCase"><rect fill="#F1F1F1" height="55.412" rx="12.5" ry="12.5" style="stroke:#181818;stroke-width:0.5;" width="77" x="539.5" y="159"/><line style="stroke:#181818;stroke-width:0.5;" x1="539.5" x2="616.5" y1="188.0679" y2="188.0679"/><text fill="#000000" font-family="sans-serif" font-size="14" lengthAdjust="spacing" textLength="57" x="549.5" y="178.9659">UseCase</text><text fill="#000000" font-family="sans-serif" font-size="12" lengthAdjust="spacing" textLength="3" x="544.5" y="205.896">&#160;</text></g><g id="DistributedResourceSync"><rect fill="#F1F1F1" height="50" rx="12.5" ry="12.5" style="stroke:#181818;stroke-width:0.5;" width="189" x="483.5" y="7"/><line style="stroke:#181818;stroke-width:0.5;" x1="483.5" x2="672.5" y1="36.0679" y2="36.0679"/><text fill="#000000" font-family="sans-serif" font-size="14" lengthAdjust="spacing" textLength="169" x="493.5" y="26.9659">DistributedResourceSync</text></g><g id="Repository"><rect fill="#F1F1F1" height="55.412" rx="12.5" ry="12.5" style="stroke:#181818;stroke-width:0.5;" width="91" x="583.5" y="360"/><line style="stroke:#181818;stroke-width:0.5;" x1="583.5" x2="674.5" y1="389.0679" y2="389.0679"/><text fill="#000000" font-family="sans-serif" font-size="14" lengthAdjust="spacing" textLength="71" x="593.5" y="379.9659">Repository</text><text fill="#000000" font-family="sans-serif" font-size="12" lengthAdjust="spacing" textLength="3" x="588.5" y="406.896">&#160;</text></g><g id="Database"><rect fill="#F1F1F1" height="50" rx="12.5" ry="12.5" style="stroke:#181818;stroke-width:0.5;" width="83" x="631.5" y="496.5"/><line style="stroke:#181818;stroke-width:0.5;" x1="631.5" x2="714.5" y1="525.5679" y2="525.5679"/><text fill="#000000" font-family="sans-serif" font-size="14" lengthAdjust="spacing" textLength="63" x="641.5" y="516.4659">Database</text></g><g id="EventDispatcher"><rect fill="#F1F1F1" height="55.412" rx="12.5" ry="12.5" style="stroke:#181818;stroke-width:0.5;" width="130" x="7" y="360"/><line style="stroke:#181818;stroke-width:0.5;" x1="7" x2="137" y1="389.0679" y2="389.0679"/><text fill="#000000" font-family="sans-serif" font-size="14" lengthAdjust="spacing" textLength="110" x="17" y="379.9659">EventDispatcher</text><text fill="#000000" font-family="sans-serif" font-size="12" lengthAdjust="spacing" textLength="3" x="12" y="406.896">&#160;</text></g><g id="KafkaTopic"><rect fill="#F1F1F1" height="55.412" rx="12.5" ry="12.5" style="stroke:#181818;stroke-width:0.5;" width="93" x="352.5" y="360"/><line style="stroke:#181818;stroke-width:0.5;" x1="352.5" x2="445.5" y1="389.0679" y2="389.0679"/><text fill="#000000" font-family="sans-serif" font-size="14" lengthAdjust="spacing" textLength="73" x="362.5" y="379.9659">KafkaTopic</text><text fill="#000000" font-family="sans-serif" font-size="12" lengthAdjust="spacing" textLength="3" x="357.5" y="406.896">&#160;</text></g><g id="KafkaConnect"><rect fill="#F1F1F1" height="55.412" rx="12.5" ry="12.5" style="stroke:#181818;stroke-width:0.5;" width="137" x="345.5" y="494"/><line style="stroke:#181818;stroke-width:0.5;" x1="345.5" x2="482.5" y1="523.0679" y2="523.0679"/><text fill="#000000" font-family="sans-serif" font-size="14" lengthAdjust="spacing" textLength="92" x="368" y="513.9659">KafkaConnect</text><text fill="#000000" font-family="sans-serif" font-size="12" lengthAdjust="spacing" textLength="117" x="350.5" y="540.896">HTTP Sink Connector</text></g><!--link Controller to UseCase--><g id="link_Controller_UseCase"><path d="M684.96,716.74 C751.21,714.55 869,699.53 869,620.5 C869,288.5 869,288.5 869,288.5 C869,237.1 704.9,205.94 623.16,193.61 " fill="none" id="Controller-to-UseCase" style="stroke:#181818;stroke-width:1.0;"/><polygon fill="#181818" points="618.44,192.91,626.7605,198.1797,623.3866,193.6391,627.9271,190.2652,618.44,192.91" style="stroke:#181818;stroke-width:1.0;"/><text fill="#000000" font-family="sans-serif" font-size="13" lengthAdjust="spacing" textLength="107" x="870" y="459.897">(1) Create Journey</text></g><!--link UseCase to DistributedResourceSync--><g id="link_UseCase_DistributedResourceSync"><path d="M616.98,177.08 C671.53,163.44 760.51,133.26 728,87 C716.03,69.97 698.14,58.28 678.85,50.27 " fill="none" id="UseCase-to-DistributedResourceSync" style="stroke:#181818;stroke-width:1.0;"/><polygon fill="#181818" points="674.23,48.46,681.1381,55.4798,678.8822,50.2922,684.0697,48.0363,674.23,48.46" style="stroke:#181818;stroke-width:1.0;"/><text fill="#000000" font-family="sans-serif" font-size="13" lengthAdjust="spacing" textLength="94" x="735" y="101.897">(2) Acquire Lock</text><text fill="#000000" font-family="sans-serif" font-size="13" lengthAdjust="spacing" textLength="62" x="751" y="119.603">(Group ID)</text></g><!--link DistributedResourceSync to UseCase--><g id="link_DistributedResourceSync_UseCase"><path d="M483.24,44.55 C431.13,53.06 373.9,66.73 358,87 C308.77,149.78 454.87,173.68 532.67,181.79 " fill="none" id="DistributedResourceSync-to-UseCase" style="stroke:#181818;stroke-width:1.0;"/><polygon fill="#181818" points="537.56,182.29,529.0041,177.4119,532.585,181.7911,528.2058,185.372,537.56,182.29" style="stroke:#181818;stroke-width:1.0;"/><text fill="#000000" font-family="sans-serif" font-size="13" lengthAdjust="spacing" textLength="101" x="359" y="101.897">(3) Lock acquired</text><text fill="#000000" font-family="sans-serif" font-size="13" lengthAdjust="spacing" textLength="62" x="378.5" y="119.603">(Group ID)</text></g><!--link UseCase to DistributedResourceSync--><g id="link_UseCase_DistributedResourceSync"><path d="M597.28,158.66 C603.59,148.34 609.79,136.11 613,124 C617.21,108.1 617.66,102.77 613,87 C610.48,78.47 606.14,70.02 601.36,62.43 " fill="none" id="UseCase-to-DistributedResourceSync-1" style="stroke:#181818;stroke-width:1.0;"/><polygon fill="#181818" points="598.82,58.58,600.4072,68.3001,601.5605,62.7621,607.0985,63.9154,598.82,58.58" style="stroke:#181818;stroke-width:1.0;"/><text fill="#000000" font-family="sans-serif" font-size="13" lengthAdjust="spacing" textLength="101" x="618" y="101.897">(10) Release Lock</text><text fill="#000000" font-family="sans-serif" font-size="13" lengthAdjust="spacing" textLength="62" x="637.5" y="119.603">(Group ID)</text></g><!--link DistributedResourceSync to UseCase--><g id="link_DistributedResourceSync_UseCase"><path d="M525.25,57.28 C513.94,65.09 503.46,74.93 497,87 C489.24,101.5 489.69,109.27 497,124 C504.97,140.06 519.36,153.05 533.82,162.89 " fill="none" id="DistributedResourceSync-to-UseCase-1" style="stroke:#181818;stroke-width:1.0;"/><polygon fill="#181818" points="537.88,165.54,532.5446,157.2615,533.6979,162.7995,528.1599,163.9528,537.88,165.54" style="stroke:#181818;stroke-width:1.0;"/><text fill="#000000" font-family="sans-serif" font-size="13" lengthAdjust="spacing" textLength="106" x="498" y="101.897">(11) Lock released</text><text fill="#000000" font-family="sans-serif" font-size="13" lengthAdjust="spacing" textLength="62" x="520" y="119.603">(Group ID)</text></g><!--link UseCase to UseCase--><g id="link_UseCase_UseCase"><path d="M616.95,174.95 C635.34,173.61 651.5,177.46 651.5,186.5 C651.5,194.48 638.91,198.42 623.3,198.31 " fill="none" id="UseCase-to-UseCase" style="stroke:#181818;stroke-width:1.0;"/><polygon fill="#181818" points="618.46,198.11,627.2805,202.4917,623.4554,198.3241,627.623,194.499,618.46,198.11" style="stroke:#181818;stroke-width:1.0;"/><text fill="#000000" font-family="sans-serif" font-size="13" lengthAdjust="spacing" textLength="104" x="690.5" y="173.897">(4) Check if group</text><text fill="#000000" font-family="sans-serif" font-size="13" lengthAdjust="spacing" textLength="170" x="657.5" y="191.603">has not pending or assigned</text><text fill="#000000" font-family="sans-serif" font-size="13" lengthAdjust="spacing" textLength="46" x="719.5" y="209.309">journey</text></g><!--link UseCase to Repository--><g id="link_UseCase_Repository"><path d="M584.88,214.34 C594.14,250.49 610.62,314.78 620.6,353.74 " fill="none" id="UseCase-to-Repository" style="stroke:#181818;stroke-width:1.0;"/><polygon fill="#181818" points="621.77,358.3,623.4341,348.5927,620.5405,353.4535,615.6797,350.5599,621.77,358.3" style="stroke:#181818;stroke-width:1.0;"/><text fill="#000000" font-family="sans-serif" font-size="13" lengthAdjust="spacing" textLength="107" x="608" y="294.897">(4) Create Journey</text></g><!--link Repository to UseCase--><g id="link_Repository_UseCase"><path d="M583.12,365.8 C556.8,351.22 526.08,328.96 511,299 C496.91,271.01 517.78,240.61 539.84,218.63 " fill="none" id="Repository-to-UseCase" style="stroke:#181818;stroke-width:1.0;"/><polygon fill="#181818" points="543.18,215.4,533.9249,218.7678,539.5808,218.8707,539.4779,224.5266,543.18,215.4" style="stroke:#181818;stroke-width:1.0;"/><text fill="#000000" font-family="sans-serif" font-size="13" lengthAdjust="spacing" textLength="81" x="512" y="294.897">(7) Journey ID</text></g><!--link Repository to Database--><g id="link_Repository_Database"><path d="M606.52,415.48 C597.19,430.07 590.16,448.28 598,464 C604.25,476.52 614.74,487 625.92,495.4 " fill="none" id="Repository-to-Database" style="stroke:#181818;stroke-width:1.0;"/><polygon fill="#181818" points="629.87,498.23,624.8798,489.739,625.8042,495.3198,620.2234,496.2442,629.87,498.23" style="stroke:#181818;stroke-width:1.0;"/><text fill="#000000" font-family="sans-serif" font-size="13" lengthAdjust="spacing" textLength="103" x="599" y="459.897">(5) Insert Journey</text></g><!--link Database to Repository--><g id="link_Database_Repository"><path d="M695.53,496.07 C706.46,481.15 715.56,461.77 707,445 C700.87,432.99 690.86,422.94 680.02,414.8 " fill="none" id="Database-to-Repository" style="stroke:#181818;stroke-width:1.0;"/><polygon fill="#181818" points="676.23,412.08,681.2202,420.571,680.2958,414.9902,685.8766,414.0658,676.23,412.08" style="stroke:#181818;stroke-width:1.0;"/><text fill="#000000" font-family="sans-serif" font-size="13" lengthAdjust="spacing" textLength="81" x="711" y="459.897">(6) Journey ID</text></g><!--link UseCase to EventDispatcher--><g id="link_UseCase_EventDispatcher"><path d="M539.44,199.62 C487.02,216.37 390.56,248.15 310,280 C249.32,303.99 181.52,334.73 133.86,357.01 " fill="none" id="UseCase-to-EventDispatcher" style="stroke:#181818;stroke-width:1.0;"/><polygon fill="#181818" points="129.52,359.04,139.3667,358.8316,134.0451,356.9131,135.9636,351.5915,129.52,359.04" style="stroke:#181818;stroke-width:1.0;"/><text fill="#000000" font-family="sans-serif" font-size="13" lengthAdjust="spacing" textLength="187" x="311" y="294.897">(8) Event: New pending journey</text></g><!--link EventDispatcher to KafkaTopic--><g id="link_EventDispatcher_KafkaTopic"><path d="M137.39,387.5 C198.58,387.5 288.88,387.5 345.79,387.5 " fill="none" id="EventDispatcher-to-KafkaTopic" style="stroke:#181818;stroke-width:1.0;"/><polygon fill="#181818" points="350.7,387.5,341.7,383.5,345.7,387.5,341.7,391.5,350.7,387.5" style="stroke:#181818;stroke-width:1.0;"/><text fill="#000000" font-family="sans-serif" font-size="13" lengthAdjust="spacing" textLength="179" x="155.25" y="380.397">(9) Msg: New pending journey</text></g><!--link KafkaTopic to KafkaConnect--><g id="link_KafkaTopic_KafkaConnect"><path d="M379.11,415.23 C370.87,429.6 364.39,447.67 370,464 C372.99,472.69 377.92,481.08 383.42,488.61 " fill="none" id="KafkaTopic-to-KafkaConnect" style="stroke:#181818;stroke-width:1.0;"/><polygon fill="#181818" points="386.39,492.48,384.0748,482.9071,383.3421,488.5163,377.7329,487.7837,386.39,492.48" style="stroke:#181818;stroke-width:1.0;"/><text fill="#000000" font-family="sans-serif" font-size="13" lengthAdjust="spacing" textLength="186" x="371" y="459.897">(12) Msg: New pending journey</text></g><!--link KafkaConnect to Controller--><g id="link_KafkaConnect_Controller"><path d="M445.56,549.47 C487.32,585.16 560.77,647.93 604.75,685.52 " fill="none" id="KafkaConnect-to-Controller" style="stroke:#181818;stroke-width:1.0;"/><polygon fill="#181818" points="608.55,688.77,604.3006,679.8851,604.7467,685.5243,599.1074,685.9704,608.55,688.77" style="stroke:#181818;stroke-width:1.0;"/><text fill="#000000" font-family="sans-serif" font-size="13" lengthAdjust="spacing" textLength="244" x="539" y="624.897">(13) HTTP Request: New pending journey</text></g><!--SRC=[dLBBRi8m4BpdA_Q83qWDVUTGgGfLIr-gWDwucB045xGEjjEAlw-Tjw5mwD7spEpCh6D9HidD1XNq-tVmgJ7c6YFeXGnYXTmWFCjS4Uw2wgt03OKsIinpWuinQWj8SBAZnF863EwJRIuKmgjCrZFgFIgPPp0Qik082xp1vwmW0YzL5fv2rqDBkR1ULsWvOWcfmyvenJMGD90XBGIb81LmhKLAJl3h896L6sCcjJ1IxIf5FttxN1R03P-NqoyPZ4YZCWssVeG3tIjMWsoSVSqsqBK7ysm-V2CPMsJ6JR92PS4thBoCu1r_ci1rnZsyw_g5BzTyAZFXzdNBu4sdVtERmQSM7funct633lY_ZOTXjN9LolWhRzqM9HN7M19XOXntSC9_5rks5pVVtN7jLtkQJZ-i_MsE-aY1GPTJLn9rTXVjTnnrF4U1RxYODn6qXkfAgk0N]--></g></svg>