<?xml version="1.0" encoding="us-ascii" standalone="no"?><svg xmlns="http://www.w3.org/2000/svg" xmlns:xlink="http://www.w3.org/1999/xlink" contentStyleType="text/css" height="503px" preserveAspectRatio="none" style="width:765px;height:503px;background:#FFFFFF;" version="1.1" viewBox="0 0 765 503" width="765px" zoomAndPan="magnify"><defs/><g><rect fill="#FFFFFF" height="398.4722" style="stroke:#181818;stroke-width:1.0;" width="10" x="61" y="49.0679"/><line style="stroke:#181818;stroke-width:0.5;stroke-dasharray:5.0,5.0;" x1="66" x2="66" y1="39.0679" y2="465.5401"/><line style="stroke:#181818;stroke-width:0.5;stroke-dasharray:5.0,5.0;" x1="319.5" x2="319.5" y1="39.0679" y2="465.5401"/><line style="stroke:#181818;stroke-width:0.5;stroke-dasharray:5.0,5.0;" x1="493.5" x2="493.5" y1="39.0679" y2="465.5401"/><line style="stroke:#181818;stroke-width:0.5;stroke-dasharray:5.0,5.0;" x1="571.5" x2="571.5" y1="39.0679" y2="465.5401"/><line style="stroke:#181818;stroke-width:0.5;stroke-dasharray:5.0,5.0;" x1="720.5" x2="720.5" y1="39.0679" y2="465.5401"/><rect fill="#E2E2F0" height="33.0679" rx="2.5" ry="2.5" style="stroke:#181818;stroke-width:0.5;" width="122" x="5" y="5"/><text fill="#000000" font-family="sans-serif" font-size="14" lengthAdjust="spacing" textLength="108" x="12" y="26.9659">JourneyUseCase</text><rect fill="#E2E2F0" height="33.0679" rx="2.5" ry="2.5" style="stroke:#181818;stroke-width:0.5;" width="122" x="5" y="464.5401"/><text fill="#000000" font-family="sans-serif" font-size="14" lengthAdjust="spacing" textLength="108" x="12" y="486.5061">JourneyUseCase</text><rect fill="#E2E2F0" height="33.0679" rx="2.5" ry="2.5" style="stroke:#181818;stroke-width:0.5;" width="183" x="228.5" y="5"/><text fill="#000000" font-family="sans-serif" font-size="14" lengthAdjust="spacing" textLength="169" x="235.5" y="26.9659">DistributedResourceSync</text><rect fill="#E2E2F0" height="33.0679" rx="2.5" ry="2.5" style="stroke:#181818;stroke-width:0.5;" width="183" x="228.5" y="464.5401"/><text fill="#000000" font-family="sans-serif" font-size="14" lengthAdjust="spacing" textLength="169" x="235.5" y="486.5061">DistributedResourceSync</text><rect fill="#E2E2F0" height="33.0679" rx="2.5" ry="2.5" style="stroke:#181818;stroke-width:0.5;" width="51" x="468.5" y="5"/><text fill="#000000" font-family="sans-serif" font-size="14" lengthAdjust="spacing" textLength="37" x="475.5" y="26.9659">Redis</text><rect fill="#E2E2F0" height="33.0679" rx="2.5" ry="2.5" style="stroke:#181818;stroke-width:0.5;" width="51" x="468.5" y="464.5401"/><text fill="#000000" font-family="sans-serif" font-size="14" lengthAdjust="spacing" textLength="37" x="475.5" y="486.5061">Redis</text><rect fill="#E2E2F0" height="33.0679" rx="2.5" ry="2.5" style="stroke:#181818;stroke-width:0.5;" width="85" x="529.5" y="5"/><text fill="#000000" font-family="sans-serif" font-size="14" lengthAdjust="spacing" textLength="71" x="536.5" y="26.9659">Repository</text><rect fill="#E2E2F0" height="33.0679" rx="2.5" ry="2.5" style="stroke:#181818;stroke-width:0.5;" width="85" x="529.5" y="464.5401"/><text fill="#000000" font-family="sans-serif" font-size="14" lengthAdjust="spacing" textLength="71" x="536.5" y="486.5061">Repository</text><rect fill="#E2E2F0" height="33.0679" rx="2.5" ry="2.5" style="stroke:#181818;stroke-width:0.5;" width="77" x="682.5" y="5"/><text fill="#000000" font-family="sans-serif" font-size="14" lengthAdjust="spacing" textLength="63" x="689.5" y="26.9659">Database</text><rect fill="#E2E2F0" height="33.0679" rx="2.5" ry="2.5" style="stroke:#181818;stroke-width:0.5;" width="77" x="682.5" y="464.5401"/><text fill="#000000" font-family="sans-serif" font-size="14" lengthAdjust="spacing" textLength="63" x="689.5" y="486.5061">Database</text><rect fill="#FFFFFF" height="398.4722" style="stroke:#181818;stroke-width:1.0;" width="10" x="61" y="49.0679"/><polygon fill="#181818" points="308,68.7739,318,72.7739,308,76.7739,312,72.7739" style="stroke:#181818;stroke-width:1.0;"/><line style="stroke:#181818;stroke-width:1.0;" x1="71" x2="314" y1="72.7739" y2="72.7739"/><text fill="#000000" font-family="sans-serif" font-size="13" lengthAdjust="spacing" textLength="150" x="78" y="66.9649">Acquire Lock (Journey ID)</text><polygon fill="#181818" points="482,100.4799,492,104.4799,482,108.4799,486,104.4799" style="stroke:#181818;stroke-width:1.0;"/><line style="stroke:#181818;stroke-width:1.0;" x1="320" x2="488" y1="104.4799" y2="104.4799"/><text fill="#000000" font-family="sans-serif" font-size="13" lengthAdjust="spacing" textLength="150" x="327" y="98.6709">Acquire Lock (Journey ID)</text><line style="stroke:#181818;stroke-width:1.0;" x1="71" x2="113" y1="136.186" y2="136.186"/><line style="stroke:#181818;stroke-width:1.0;" x1="113" x2="113" y1="136.186" y2="149.186"/><line style="stroke:#181818;stroke-width:1.0;" x1="72" x2="113" y1="149.186" y2="149.186"/><polygon fill="#181818" points="82,145.186,72,149.186,82,153.186,78,149.186" style="stroke:#181818;stroke-width:1.0;"/><text fill="#000000" font-family="sans-serif" font-size="13" lengthAdjust="spacing" textLength="173" x="78" y="130.377">Check if journey is assignable</text><polygon fill="#181818" points="308,176.892,318,180.892,308,184.892,312,180.892" style="stroke:#181818;stroke-width:1.0;"/><line style="stroke:#181818;stroke-width:1.0;" x1="71" x2="314" y1="180.892" y2="180.892"/><text fill="#000000" font-family="sans-serif" font-size="13" lengthAdjust="spacing" textLength="123" x="78" y="175.083">Acquire Lock (Car ID)</text><polygon fill="#181818" points="482,208.598,492,212.598,482,216.598,486,212.598" style="stroke:#181818;stroke-width:1.0;"/><line style="stroke:#181818;stroke-width:1.0;" x1="320" x2="488" y1="212.598" y2="212.598"/><text fill="#000000" font-family="sans-serif" font-size="13" lengthAdjust="spacing" textLength="123" x="327" y="206.789">Acquire Lock (Car ID)</text><line style="stroke:#181818;stroke-width:1.0;" x1="71" x2="113" y1="244.304" y2="244.304"/><line style="stroke:#181818;stroke-width:1.0;" x1="113" x2="113" y1="244.304" y2="257.304"/><line style="stroke:#181818;stroke-width:1.0;" x1="72" x2="113" y1="257.304" y2="257.304"/><polygon fill="#181818" points="82,253.304,72,257.304,82,261.304,78,257.304" style="stroke:#181818;stroke-width:1.0;"/><text fill="#000000" font-family="sans-serif" font-size="13" lengthAdjust="spacing" textLength="230" x="78" y="238.495">Check if car has enough available seats</text><polygon fill="#181818" points="560,285.01,570,289.01,560,293.01,564,289.01" style="stroke:#181818;stroke-width:1.0;"/><line style="stroke:#181818;stroke-width:1.0;" x1="71" x2="566" y1="289.01" y2="289.01"/><text fill="#000000" font-family="sans-serif" font-size="13" lengthAdjust="spacing" textLength="125" x="78" y="283.201">Assign car to journey</text><polygon fill="#181818" points="709,316.716,719,320.716,709,324.716,713,320.716" style="stroke:#181818;stroke-width:1.0;"/><line style="stroke:#181818;stroke-width:1.0;" x1="572" x2="715" y1="320.716" y2="320.716"/><text fill="#000000" font-family="sans-serif" font-size="13" lengthAdjust="spacing" textLength="125" x="579" y="314.907">Assign car to journey</text><polygon fill="#181818" points="308,348.4221,318,352.4221,308,356.4221,312,352.4221" style="stroke:#181818;stroke-width:1.0;"/><line style="stroke:#181818;stroke-width:1.0;" x1="71" x2="314" y1="352.4221" y2="352.4221"/><text fill="#000000" font-family="sans-serif" font-size="13" lengthAdjust="spacing" textLength="123" x="78" y="346.6131">Release Lock (Car ID)</text><polygon fill="#181818" points="482,380.1281,492,384.1281,482,388.1281,486,384.1281" style="stroke:#181818;stroke-width:1.0;"/><line style="stroke:#181818;stroke-width:1.0;" x1="320" x2="488" y1="384.1281" y2="384.1281"/><text fill="#000000" font-family="sans-serif" font-size="13" lengthAdjust="spacing" textLength="123" x="327" y="378.3191">Release Lock (Car ID)</text><polygon fill="#181818" points="308,411.8341,318,415.8341,308,419.8341,312,415.8341" style="stroke:#181818;stroke-width:1.0;"/><line style="stroke:#181818;stroke-width:1.0;" x1="71" x2="314" y1="415.8341" y2="415.8341"/><text fill="#000000" font-family="sans-serif" font-size="13" lengthAdjust="spacing" textLength="150" x="78" y="410.0251">Release Lock (Journey ID)</text><polygon fill="#181818" points="482,443.5401,492,447.5401,482,451.5401,486,447.5401" style="stroke:#181818;stroke-width:1.0;"/><line style="stroke:#181818;stroke-width:1.0;" x1="320" x2="488" y1="447.5401" y2="447.5401"/><text fill="#000000" font-family="sans-serif" font-size="13" lengthAdjust="spacing" textLength="150" x="327" y="441.7311">Release Lock (Journey ID)</text><!--SRC=[fP9D3e9038NtdA9BNNW15oO6DnfN60zGXYfLCeFJOiBj1O9Hr351bzDvN_lwKw9NDboYLTYuobkgzq8n2aNbqzUAHJsdbLAMa3GwGxlQce4ceOpb9L8wONM-7YP3nRIj4A5HlgBIQ-dX4sQBa84vBCsbOa-mTUOCanw4zMeQ1P0sMsVr6_jkO1YPGvnJ0_41JZt60YZ2HujfyKS7CVgVtD-v4SvDW-GeGDPLnnpmYboqva48LJvaUkopgTxrskLGTnz2z51qBVUB3gb732cXWbhDs25zvdukFEw-mcn6WTE_0G00]--></g></svg>