<?xml version="1.0" encoding="us-ascii" standalone="no"?><svg xmlns="http://www.w3.org/2000/svg" xmlns:xlink="http://www.w3.org/1999/xlink" contentStyleType="text/css" height="612px" preserveAspectRatio="none" style="width:1547px;height:612px;background:#FFFFFF;" version="1.1" viewBox="0 0 1547 612" width="1547px" zoomAndPan="magnify"><defs/><g><rect fill="#FFFFFF" height="385.4722" style="stroke:#181818;stroke-width:1.0;" width="10" x="22.5" y="94.0679"/><rect fill="#FFFFFF" height="385.4722" style="stroke:#181818;stroke-width:1.0;" width="10" x="200.5" y="94.0679"/><rect fill="#FFFFFF" height="298.3541" style="stroke:#181818;stroke-width:1.0;" width="10" x="318.5" y="149.4799"/><line style="stroke:#181818;stroke-width:0.5;stroke-dasharray:5.0,5.0;" x1="27" x2="27" y1="84.0679" y2="529.2461"/><line style="stroke:#181818;stroke-width:0.5;stroke-dasharray:5.0,5.0;" x1="205" x2="205" y1="84.0679" y2="529.2461"/><line style="stroke:#181818;stroke-width:0.5;stroke-dasharray:5.0,5.0;" x1="323.5" x2="323.5" y1="84.0679" y2="529.2461"/><line style="stroke:#181818;stroke-width:0.5;stroke-dasharray:5.0,5.0;" x1="655" x2="655" y1="84.0679" y2="529.2461"/><line style="stroke:#181818;stroke-width:0.5;stroke-dasharray:5.0,5.0;" x1="820" x2="820" y1="84.0679" y2="529.2461"/><line style="stroke:#181818;stroke-width:0.5;stroke-dasharray:5.0,5.0;" x1="898" x2="898" y1="84.0679" y2="529.2461"/><line style="stroke:#181818;stroke-width:0.5;stroke-dasharray:5.0,5.0;" x1="1007" x2="1007" y1="84.0679" y2="529.2461"/><line style="stroke:#181818;stroke-width:0.5;stroke-dasharray:5.0,5.0;" x1="1118" x2="1118" y1="84.0679" y2="529.2461"/><line style="stroke:#181818;stroke-width:0.5;stroke-dasharray:5.0,5.0;" x1="1302.5" x2="1302.5" y1="84.0679" y2="529.2461"/><line style="stroke:#181818;stroke-width:0.5;stroke-dasharray:5.0,5.0;" x1="1488" x2="1488" y1="84.0679" y2="529.2461"/><text fill="#000000" font-family="sans-serif" font-size="14" lengthAdjust="spacing" textLength="39" x="5" y="79.9659">Client</text><ellipse cx="27.5" cy="13.5" fill="#E2E2F0" rx="8" ry="8" style="stroke:#181818;stroke-width:0.5;"/><path d="M27.5,21.5 L27.5,48.5 M14.5,29.5 L40.5,29.5 M27.5,48.5 L14.5,63.5 M27.5,48.5 L40.5,63.5 " fill="none" style="stroke:#181818;stroke-width:0.5;"/><text fill="#000000" font-family="sans-serif" font-size="14" lengthAdjust="spacing" textLength="39" x="5" y="543.2121">Client</text><ellipse cx="27.5" cy="555.814" fill="#E2E2F0" rx="8" ry="8" style="stroke:#181818;stroke-width:0.5;"/><path d="M27.5,563.814 L27.5,590.814 M14.5,571.814 L40.5,571.814 M27.5,590.814 L14.5,605.814 M27.5,590.814 L40.5,605.814 " fill="none" style="stroke:#181818;stroke-width:0.5;"/><rect fill="#E2E2F0" height="33.0679" rx="2.5" ry="2.5" style="stroke:#181818;stroke-width:0.5;" width="81" x="165" y="50"/><text fill="#000000" font-family="sans-serif" font-size="14" lengthAdjust="spacing" textLength="67" x="172" y="71.9659">Controller</text><rect fill="#E2E2F0" height="33.0679" rx="2.5" ry="2.5" style="stroke:#181818;stroke-width:0.5;" width="81" x="165" y="528.2461"/><text fill="#000000" font-family="sans-serif" font-size="14" lengthAdjust="spacing" textLength="67" x="172" y="550.2121">Controller</text><rect fill="#E2E2F0" height="33.0679" rx="2.5" ry="2.5" style="stroke:#181818;stroke-width:0.5;" width="122" x="262.5" y="50"/><text fill="#000000" font-family="sans-serif" font-size="14" lengthAdjust="spacing" textLength="108" x="269.5" y="71.9659">JourneyUseCase</text><rect fill="#E2E2F0" height="33.0679" rx="2.5" ry="2.5" style="stroke:#181818;stroke-width:0.5;" width="122" x="262.5" y="528.2461"/><text fill="#000000" font-family="sans-serif" font-size="14" lengthAdjust="spacing" textLength="108" x="269.5" y="550.2121">JourneyUseCase</text><rect fill="#E2E2F0" height="33.0679" rx="2.5" ry="2.5" style="stroke:#181818;stroke-width:0.5;" width="183" x="564" y="50"/><text fill="#000000" font-family="sans-serif" font-size="14" lengthAdjust="spacing" textLength="169" x="571" y="71.9659">DistributedResourceSync</text><rect fill="#E2E2F0" height="33.0679" rx="2.5" ry="2.5" style="stroke:#181818;stroke-width:0.5;" width="183" x="564" y="528.2461"/><text fill="#000000" font-family="sans-serif" font-size="14" lengthAdjust="spacing" textLength="169" x="571" y="550.2121">DistributedResourceSync</text><rect fill="#E2E2F0" height="33.0679" rx="2.5" ry="2.5" style="stroke:#181818;stroke-width:0.5;" width="51" x="795" y="50"/><text fill="#000000" font-family="sans-serif" font-size="14" lengthAdjust="spacing" textLength="37" x="802" y="71.9659">Redis</text><rect fill="#E2E2F0" height="33.0679" rx="2.5" ry="2.5" style="stroke:#181818;stroke-width:0.5;" width="51" x="795" y="528.2461"/><text fill="#000000" font-family="sans-serif" font-size="14" lengthAdjust="spacing" textLength="37" x="802" y="550.2121">Redis</text><rect fill="#E2E2F0" height="33.0679" rx="2.5" ry="2.5" style="stroke:#181818;stroke-width:0.5;" width="85" x="856" y="50"/><text fill="#000000" font-family="sans-serif" font-size="14" lengthAdjust="spacing" textLength="71" x="863" y="71.9659">Repository</text><rect fill="#E2E2F0" height="33.0679" rx="2.5" ry="2.5" style="stroke:#181818;stroke-width:0.5;" width="85" x="856" y="528.2461"/><text fill="#000000" font-family="sans-serif" font-size="14" lengthAdjust="spacing" textLength="71" x="863" y="550.2121">Repository</text><rect fill="#E2E2F0" height="33.0679" rx="2.5" ry="2.5" style="stroke:#181818;stroke-width:0.5;" width="77" x="969" y="50"/><text fill="#000000" font-family="sans-serif" font-size="14" lengthAdjust="spacing" textLength="63" x="976" y="71.9659">Database</text><rect fill="#E2E2F0" height="33.0679" rx="2.5" ry="2.5" style="stroke:#181818;stroke-width:0.5;" width="77" x="969" y="528.2461"/><text fill="#000000" font-family="sans-serif" font-size="14" lengthAdjust="spacing" textLength="63" x="976" y="550.2121">Database</text><rect fill="#E2E2F0" height="33.0679" rx="2.5" ry="2.5" style="stroke:#181818;stroke-width:0.5;" width="124" x="1056" y="50"/><text fill="#000000" font-family="sans-serif" font-size="14" lengthAdjust="spacing" textLength="110" x="1063" y="71.9659">EventDispatcher</text><rect fill="#E2E2F0" height="33.0679" rx="2.5" ry="2.5" style="stroke:#181818;stroke-width:0.5;" width="124" x="1056" y="528.2461"/><text fill="#000000" font-family="sans-serif" font-size="14" lengthAdjust="spacing" textLength="110" x="1063" y="550.2121">EventDispatcher</text><rect fill="#E2E2F0" height="33.0679" rx="2.5" ry="2.5" style="stroke:#181818;stroke-width:0.5;" width="87" x="1259.5" y="50"/><text fill="#000000" font-family="sans-serif" font-size="14" lengthAdjust="spacing" textLength="73" x="1266.5" y="71.9659">KafkaTopic</text><rect fill="#E2E2F0" height="33.0679" rx="2.5" ry="2.5" style="stroke:#181818;stroke-width:0.5;" width="87" x="1259.5" y="528.2461"/><text fill="#000000" font-family="sans-serif" font-size="14" lengthAdjust="spacing" textLength="73" x="1266.5" y="550.2121">KafkaTopic</text><rect fill="#E2E2F0" height="33.0679" rx="2.5" ry="2.5" style="stroke:#181818;stroke-width:0.5;" width="106" x="1435" y="50"/><text fill="#000000" font-family="sans-serif" font-size="14" lengthAdjust="spacing" textLength="92" x="1442" y="71.9659">KafkaConnect</text><rect fill="#E2E2F0" height="33.0679" rx="2.5" ry="2.5" style="stroke:#181818;stroke-width:0.5;" width="106" x="1435" y="528.2461"/><text fill="#000000" font-family="sans-serif" font-size="14" lengthAdjust="spacing" textLength="92" x="1442" y="550.2121">KafkaConnect</text><rect fill="#FFFFFF" height="385.4722" style="stroke:#181818;stroke-width:1.0;" width="10" x="22.5" y="94.0679"/><rect fill="#FFFFFF" height="385.4722" style="stroke:#181818;stroke-width:1.0;" width="10" x="200.5" y="94.0679"/><rect fill="#FFFFFF" height="298.3541" style="stroke:#181818;stroke-width:1.0;" width="10" x="318.5" y="149.4799"/><polygon fill="#181818" points="188.5,113.7739,198.5,117.7739,188.5,121.7739,192.5,117.7739" style="stroke:#181818;stroke-width:1.0;"/><line style="stroke:#181818;stroke-width:1.0;" x1="32.5" x2="194.5" y1="117.7739" y2="117.7739"/><text fill="#000000" font-family="sans-serif" font-size="13" lengthAdjust="spacing" textLength="144" x="39.5" y="111.9649">Request: Create Journey</text><polygon fill="#181818" points="306.5,145.4799,316.5,149.4799,306.5,153.4799,310.5,149.4799" style="stroke:#181818;stroke-width:1.0;"/><line style="stroke:#181818;stroke-width:1.0;" x1="210.5" x2="312.5" y1="149.4799" y2="149.4799"/><text fill="#000000" font-family="sans-serif" font-size="13" lengthAdjust="spacing" textLength="89" x="217.5" y="143.6709">Create Journey</text><polygon fill="#181818" points="643.5,177.186,653.5,181.186,643.5,185.186,647.5,181.186" style="stroke:#181818;stroke-width:1.0;"/><line style="stroke:#181818;stroke-width:1.0;" x1="328.5" x2="649.5" y1="181.186" y2="181.186"/><text fill="#000000" font-family="sans-serif" font-size="13" lengthAdjust="spacing" textLength="141" x="335.5" y="175.377">Acquire Lock (Group ID)</text><polygon fill="#181818" points="808.5,208.892,818.5,212.892,808.5,216.892,812.5,212.892" style="stroke:#181818;stroke-width:1.0;"/><line style="stroke:#181818;stroke-width:1.0;" x1="655.5" x2="814.5" y1="212.892" y2="212.892"/><text fill="#000000" font-family="sans-serif" font-size="13" lengthAdjust="spacing" textLength="141" x="662.5" y="207.083">Acquire Lock (Group ID)</text><line style="stroke:#181818;stroke-width:1.0;" x1="328.5" x2="370.5" y1="244.598" y2="244.598"/><line style="stroke:#181818;stroke-width:1.0;" x1="370.5" x2="370.5" y1="244.598" y2="257.598"/><line style="stroke:#181818;stroke-width:1.0;" x1="329.5" x2="370.5" y1="257.598" y2="257.598"/><polygon fill="#181818" points="339.5,253.598,329.5,257.598,339.5,261.598,335.5,257.598" style="stroke:#181818;stroke-width:1.0;"/><text fill="#000000" font-family="sans-serif" font-size="13" lengthAdjust="spacing" textLength="308" x="335.5" y="238.789">Check if group has not pending or assigned journey</text><polygon fill="#181818" points="886.5,285.304,896.5,289.304,886.5,293.304,890.5,289.304" style="stroke:#181818;stroke-width:1.0;"/><line style="stroke:#181818;stroke-width:1.0;" x1="328.5" x2="892.5" y1="289.304" y2="289.304"/><text fill="#000000" font-family="sans-serif" font-size="13" lengthAdjust="spacing" textLength="89" x="335.5" y="283.495">Create Journey</text><polygon fill="#181818" points="995.5,317.01,1005.5,321.01,995.5,325.01,999.5,321.01" style="stroke:#181818;stroke-width:1.0;"/><line style="stroke:#181818;stroke-width:1.0;" x1="898.5" x2="1001.5" y1="321.01" y2="321.01"/><text fill="#000000" font-family="sans-serif" font-size="13" lengthAdjust="spacing" textLength="85" x="905.5" y="315.201">Insert Journey</text><polygon fill="#181818" points="1106,348.716,1116,352.716,1106,356.716,1110,352.716" style="stroke:#181818;stroke-width:1.0;"/><line style="stroke:#181818;stroke-width:1.0;" x1="328.5" x2="1112" y1="352.716" y2="352.716"/><text fill="#000000" font-family="sans-serif" font-size="13" lengthAdjust="spacing" textLength="169" x="335.5" y="346.907">Event: New pending journey</text><polygon fill="#181818" points="1291,380.4221,1301,384.4221,1291,388.4221,1295,384.4221" style="stroke:#181818;stroke-width:1.0;"/><line style="stroke:#181818;stroke-width:1.0;" x1="1118" x2="1297" y1="384.4221" y2="384.4221"/><text fill="#000000" font-family="sans-serif" font-size="13" lengthAdjust="spacing" textLength="161" x="1125" y="378.6131">Msg: New pending journey</text><polygon fill="#181818" points="643.5,412.1281,653.5,416.1281,643.5,420.1281,647.5,416.1281" style="stroke:#181818;stroke-width:1.0;"/><line style="stroke:#181818;stroke-width:1.0;" x1="328.5" x2="649.5" y1="416.1281" y2="416.1281"/><text fill="#000000" font-family="sans-serif" font-size="13" lengthAdjust="spacing" textLength="141" x="335.5" y="410.3191">Release Lock (Group ID)</text><polygon fill="#181818" points="808.5,443.8341,818.5,447.8341,808.5,451.8341,812.5,447.8341" style="stroke:#181818;stroke-width:1.0;"/><line style="stroke:#181818;stroke-width:1.0;" x1="655.5" x2="814.5" y1="447.8341" y2="447.8341"/><text fill="#000000" font-family="sans-serif" font-size="13" lengthAdjust="spacing" textLength="141" x="662.5" y="442.0251">Release Lock (Group ID)</text><polygon fill="#181818" points="38.5,475.5401,28.5,479.5401,38.5,483.5401,34.5,479.5401" style="stroke:#181818;stroke-width:1.0;"/><line style="stroke:#181818;stroke-width:1.0;" x1="32.5" x2="204.5" y1="479.5401" y2="479.5401"/><text fill="#000000" font-family="sans-serif" font-size="13" lengthAdjust="spacing" textLength="127" x="44.5" y="473.7311">Response: Journey ID</text><polygon fill="#181818" points="1476,507.2461,1486,511.2461,1476,515.2461,1480,511.2461" style="stroke:#181818;stroke-width:1.0;"/><line style="stroke:#181818;stroke-width:1.0;" x1="1303" x2="1482" y1="511.2461" y2="511.2461"/><text fill="#000000" font-family="sans-serif" font-size="13" lengthAdjust="spacing" textLength="161" x="1310" y="505.4371">Msg: New pending journey</text><!--SRC=[bLFBSeCm3Bpp5JgsX_w03vtfa4udVHre-m6EKOWRndPiaGv_Nni8nX0EELhIhgJLcWlI5l9QegBCS4jIICCLGQuLMLtNQ9FmgswimlR7OSuT9gcDT6JbhY4i2tI-Jk1NgqHIKs0ftInYj9D-Y3ObuyHtymxFPp-bRsCuYSDii3U-F_9lRQHOXlqk2WLb6HSapvpmid1ynstx53myJeBCZtbgq163t68033faiIOWKdKMnMExcOhfCn2jQCdWIPmQQH7UjJZ2tOlLZO7jvZvR0GIkJlDrvBBvOei3UeZSGzM13jo1qWG6LIbL1Tu_t3bPAIpXTzXqIHhll90bfhhLXyips2g7ThJS5SwP7rWVOF29V-DqbubcjG4UBSFWmrNNSJVSfi0QGytjjrb3bhXccTHtlMS3ZpDQ1Us6Siyo9PdOV1hjFqEKOnHd-3Zhylm3]--></g></svg>