<?xml version="1.0" encoding="us-ascii" standalone="no"?><svg xmlns="http://www.w3.org/2000/svg" xmlns:xlink="http://www.w3.org/1999/xlink" contentStyleType="text/css" height="380px" preserveAspectRatio="none" style="width:806px;height:380px;background:#FFFFFF;" version="1.1" viewBox="0 0 806 380" width="806px" zoomAndPan="magnify"><defs/><g><rect fill="#FFFFFF" height="275.6481" style="stroke:#181818;stroke-width:1.0;" width="10" x="285" y="49.0679"/><rect fill="none" height="98.118" style="stroke:#000000;stroke-width:1.5;" width="389" x="367" y="195.892"/><rect fill="none" height="64.412" style="stroke:#000000;stroke-width:1.5;" width="289" x="377" y="222.598"/><line style="stroke:#181818;stroke-width:0.5;stroke-dasharray:5.0,5.0;" x1="58" x2="58" y1="39.0679" y2="342.716"/><line style="stroke:#181818;stroke-width:0.5;stroke-dasharray:5.0,5.0;" x1="289.5" x2="289.5" y1="39.0679" y2="342.716"/><line style="stroke:#181818;stroke-width:0.5;stroke-dasharray:5.0,5.0;" x1="448" x2="448" y1="39.0679" y2="342.716"/><line style="stroke:#181818;stroke-width:0.5;stroke-dasharray:5.0,5.0;" x1="753" x2="753" y1="39.0679" y2="342.716"/><rect fill="#E2E2F0" height="33.0679" rx="2.5" ry="2.5" style="stroke:#181818;stroke-width:0.5;" width="106" x="5" y="5"/><text fill="#000000" font-family="sans-serif" font-size="14" lengthAdjust="spacing" textLength="92" x="12" y="26.9659">KafkaConnect</text><rect fill="#E2E2F0" height="33.0679" rx="2.5" ry="2.5" style="stroke:#181818;stroke-width:0.5;" width="106" x="5" y="341.716"/><text fill="#000000" font-family="sans-serif" font-size="14" lengthAdjust="spacing" textLength="92" x="12" y="363.682">KafkaConnect</text><rect fill="#E2E2F0" height="33.0679" rx="2.5" ry="2.5" style="stroke:#181818;stroke-width:0.5;" width="81" x="249.5" y="5"/><text fill="#000000" font-family="sans-serif" font-size="14" lengthAdjust="spacing" textLength="67" x="256.5" y="26.9659">Controller</text><rect fill="#E2E2F0" height="33.0679" rx="2.5" ry="2.5" style="stroke:#181818;stroke-width:0.5;" width="81" x="249.5" y="341.716"/><text fill="#000000" font-family="sans-serif" font-size="14" lengthAdjust="spacing" textLength="67" x="256.5" y="363.682">Controller</text><rect fill="#E2E2F0" height="33.0679" rx="2.5" ry="2.5" style="stroke:#181818;stroke-width:0.5;" width="122" x="387" y="5"/><text fill="#000000" font-family="sans-serif" font-size="14" lengthAdjust="spacing" textLength="108" x="394" y="26.9659">JourneyUseCase</text><rect fill="#E2E2F0" height="33.0679" rx="2.5" ry="2.5" style="stroke:#181818;stroke-width:0.5;" width="122" x="387" y="341.716"/><text fill="#000000" font-family="sans-serif" font-size="14" lengthAdjust="spacing" textLength="108" x="394" y="363.682">JourneyUseCase</text><rect fill="#E2E2F0" height="33.0679" rx="2.5" ry="2.5" style="stroke:#181818;stroke-width:0.5;" width="94" x="706" y="5"/><text fill="#000000" font-family="sans-serif" font-size="14" lengthAdjust="spacing" textLength="80" x="713" y="26.9659">CarUseCase</text><rect fill="#E2E2F0" height="33.0679" rx="2.5" ry="2.5" style="stroke:#181818;stroke-width:0.5;" width="94" x="706" y="341.716"/><text fill="#000000" font-family="sans-serif" font-size="14" lengthAdjust="spacing" textLength="80" x="713" y="363.682">CarUseCase</text><rect fill="#FFFFFF" height="275.6481" style="stroke:#181818;stroke-width:1.0;" width="10" x="285" y="49.0679"/><polygon fill="#181818" points="273,68.7739,283,72.7739,273,76.7739,277,72.7739" style="stroke:#181818;stroke-width:1.0;"/><line style="stroke:#181818;stroke-width:1.0;" x1="58" x2="279" y1="72.7739" y2="72.7739"/><text fill="#000000" font-family="sans-serif" font-size="13" lengthAdjust="spacing" textLength="184" x="65" y="66.9649">Request: New pending journey</text><polygon fill="#181818" points="436,100.4799,446,104.4799,436,108.4799,440,104.4799" style="stroke:#181818;stroke-width:1.0;"/><line style="stroke:#181818;stroke-width:1.0;" x1="295" x2="442" y1="104.4799" y2="104.4799"/><text fill="#000000" font-family="sans-serif" font-size="13" lengthAdjust="spacing" textLength="129" x="302" y="98.6709">New pending journey</text><line style="stroke:#181818;stroke-width:1.0;" x1="448" x2="490" y1="136.186" y2="136.186"/><line style="stroke:#181818;stroke-width:1.0;" x1="490" x2="490" y1="136.186" y2="149.186"/><line style="stroke:#181818;stroke-width:1.0;" x1="449" x2="490" y1="149.186" y2="149.186"/><polygon fill="#181818" points="459,145.186,449,149.186,459,153.186,455,149.186" style="stroke:#181818;stroke-width:1.0;"/><text fill="#000000" font-family="sans-serif" font-size="13" lengthAdjust="spacing" textLength="173" x="455" y="130.377">Check if journey is assignable</text><polygon fill="#181818" points="741,176.892,751,180.892,741,184.892,745,180.892" style="stroke:#181818;stroke-width:1.0;"/><line style="stroke:#181818;stroke-width:1.0;" x1="448" x2="747" y1="180.892" y2="180.892"/><text fill="#000000" font-family="sans-serif" font-size="13" lengthAdjust="spacing" textLength="281" x="455" y="175.083">Get available cars with enough seating capacity</text><path d="M367,195.892 L440,195.892 L440,205.598 L430,215.598 L367,215.598 L367,195.892 " fill="#EEEEEE" style="stroke:#000000;stroke-width:1.5;"/><rect fill="none" height="98.118" style="stroke:#000000;stroke-width:1.5;" width="389" x="367" y="195.892"/><text fill="#000000" font-family="sans-serif" font-size="13" font-weight="bold" lengthAdjust="spacing" textLength="28" x="382" y="210.789">loop</text><text fill="#000000" font-family="sans-serif" font-size="11" font-weight="bold" lengthAdjust="spacing" textLength="296" x="455" y="209.6509">[For each available car with enough seating capacity]</text><path d="M377,222.598 L440,222.598 L440,232.304 L430,242.304 L377,242.304 L377,222.598 " fill="#EEEEEE" style="stroke:#000000;stroke-width:1.5;"/><rect fill="none" height="64.412" style="stroke:#000000;stroke-width:1.5;" width="289" x="377" y="222.598"/><text fill="#000000" font-family="sans-serif" font-size="13" font-weight="bold" lengthAdjust="spacing" textLength="18" x="392" y="237.495">alt</text><text fill="#000000" font-family="sans-serif" font-size="11" font-weight="bold" lengthAdjust="spacing" textLength="206" x="455" y="236.3569">[if journey doesn't have car assigned]</text><line style="stroke:#181818;stroke-width:1.0;" x1="448" x2="490" y1="266.01" y2="266.01"/><line style="stroke:#181818;stroke-width:1.0;" x1="490" x2="490" y1="266.01" y2="279.01"/><line style="stroke:#181818;stroke-width:1.0;" x1="449" x2="490" y1="279.01" y2="279.01"/><polygon fill="#181818" points="459,275.01,449,279.01,459,283.01,455,279.01" style="stroke:#181818;stroke-width:1.0;"/><text fill="#000000" font-family="sans-serif" font-size="13" lengthAdjust="spacing" textLength="125" x="455" y="260.201">Assign car to journey</text><polygon fill="#181818" points="69,320.716,59,324.716,69,328.716,65,324.716" style="stroke:#181818;stroke-width:1.0;"/><line style="stroke:#181818;stroke-width:1.0;" x1="63" x2="289" y1="324.716" y2="324.716"/><text fill="#000000" font-family="sans-serif" font-size="13" lengthAdjust="spacing" textLength="203" x="75" y="318.907">Response to HTTP Sink Connector</text><!--SRC=[XP51JiGm34NtEOLthBZ0B91G9K0W8JGC1p2ffmsDx92u7StjQLeO4ga2IzdO_tqxTi2ephg0hF24nm4ROIQh9XI5EQTHlATOfHzbZ4pdjqGD9Z86hRe9bKfzwGdNDqLf1tlw72df3fxf186uTTp1nsfgVeKPgrjj4xLcYsfwiWEuumy2BW6cv3h6TqyR1Wt62tnF2ZYXyraB5cE2azCUY6NiUaY4cgUn6D0wFHil4k1E8X3QlYR_1c4Ez5hEsGeblbBeSLeDrgcfNSGv_l_yxO8ijCfbQPcTzsZogrTUNYxVAWNXsNbc7mw75tXrFC1tMQ9fQUFwNm00]--></g></svg>