<?xml version="1.0" encoding="us-ascii" standalone="no"?><svg xmlns="http://www.w3.org/2000/svg" xmlns:xlink="http://www.w3.org/1999/xlink" contentStyleType="text/css" height="349px" preserveAspectRatio="none" style="width:759px;height:349px;background:#FFFFFF;" version="1.1" viewBox="0 0 759 349" width="759px" zoomAndPan="magnify"><defs/><g><rect fill="#FFFFFF" height="243.9421" style="stroke:#181818;stroke-width:1.0;" width="10" x="285" y="49.0679"/><rect fill="none" height="98.118" style="stroke:#000000;stroke-width:1.5;" width="389" x="320.5" y="164.186"/><rect fill="none" height="64.412" style="stroke:#000000;stroke-width:1.5;" width="289" x="330.5" y="190.892"/><line style="stroke:#181818;stroke-width:0.5;stroke-dasharray:5.0,5.0;" x1="58" x2="58" y1="39.0679" y2="311.01"/><line style="stroke:#181818;stroke-width:0.5;stroke-dasharray:5.0,5.0;" x1="289.5" x2="289.5" y1="39.0679" y2="311.01"/><line style="stroke:#181818;stroke-width:0.5;stroke-dasharray:5.0,5.0;" x1="401.5" x2="401.5" y1="39.0679" y2="311.01"/><line style="stroke:#181818;stroke-width:0.5;stroke-dasharray:5.0,5.0;" x1="706.5" x2="706.5" y1="39.0679" y2="311.01"/><rect fill="#E2E2F0" height="33.0679" rx="2.5" ry="2.5" style="stroke:#181818;stroke-width:0.5;" width="106" x="5" y="5"/><text fill="#000000" font-family="sans-serif" font-size="14" lengthAdjust="spacing" textLength="92" x="12" y="26.9659">KafkaConnect</text><rect fill="#E2E2F0" height="33.0679" rx="2.5" ry="2.5" style="stroke:#181818;stroke-width:0.5;" width="106" x="5" y="310.01"/><text fill="#000000" font-family="sans-serif" font-size="14" lengthAdjust="spacing" textLength="92" x="12" y="331.976">KafkaConnect</text><rect fill="#E2E2F0" height="33.0679" rx="2.5" ry="2.5" style="stroke:#181818;stroke-width:0.5;" width="81" x="249.5" y="5"/><text fill="#000000" font-family="sans-serif" font-size="14" lengthAdjust="spacing" textLength="67" x="256.5" y="26.9659">Controller</text><rect fill="#E2E2F0" height="33.0679" rx="2.5" ry="2.5" style="stroke:#181818;stroke-width:0.5;" width="81" x="249.5" y="310.01"/><text fill="#000000" font-family="sans-serif" font-size="14" lengthAdjust="spacing" textLength="67" x="256.5" y="331.976">Controller</text><rect fill="#E2E2F0" height="33.0679" rx="2.5" ry="2.5" style="stroke:#181818;stroke-width:0.5;" width="122" x="340.5" y="5"/><text fill="#000000" font-family="sans-serif" font-size="14" lengthAdjust="spacing" textLength="108" x="347.5" y="26.9659">JourneyUseCase</text><rect fill="#E2E2F0" height="33.0679" rx="2.5" ry="2.5" style="stroke:#181818;stroke-width:0.5;" width="122" x="340.5" y="310.01"/><text fill="#000000" font-family="sans-serif" font-size="14" lengthAdjust="spacing" textLength="108" x="347.5" y="331.976">JourneyUseCase</text><rect fill="#E2E2F0" height="33.0679" rx="2.5" ry="2.5" style="stroke:#181818;stroke-width:0.5;" width="94" x="659.5" y="5"/><text fill="#000000" font-family="sans-serif" font-size="14" lengthAdjust="spacing" textLength="80" x="666.5" y="26.9659">CarUseCase</text><rect fill="#E2E2F0" height="33.0679" rx="2.5" ry="2.5" style="stroke:#181818;stroke-width:0.5;" width="94" x="659.5" y="310.01"/><text fill="#000000" font-family="sans-serif" font-size="14" lengthAdjust="spacing" textLength="80" x="666.5" y="331.976">CarUseCase</text><rect fill="#FFFFFF" height="243.9421" style="stroke:#181818;stroke-width:1.0;" width="10" x="285" y="49.0679"/><polygon fill="#181818" points="273,68.7739,283,72.7739,273,76.7739,277,72.7739" style="stroke:#181818;stroke-width:1.0;"/><line style="stroke:#181818;stroke-width:1.0;" x1="58" x2="279" y1="72.7739" y2="72.7739"/><text fill="#000000" font-family="sans-serif" font-size="13" lengthAdjust="spacing" textLength="184" x="65" y="66.9649">Request: New pending journey</text><line style="stroke:#181818;stroke-width:1.0;" x1="401.5" x2="443.5" y1="104.4799" y2="104.4799"/><line style="stroke:#181818;stroke-width:1.0;" x1="443.5" x2="443.5" y1="104.4799" y2="117.4799"/><line style="stroke:#181818;stroke-width:1.0;" x1="402.5" x2="443.5" y1="117.4799" y2="117.4799"/><polygon fill="#181818" points="412.5,113.4799,402.5,117.4799,412.5,121.4799,408.5,117.4799" style="stroke:#181818;stroke-width:1.0;"/><text fill="#000000" font-family="sans-serif" font-size="13" lengthAdjust="spacing" textLength="173" x="408.5" y="98.6709">Check if journey is assignable</text><polygon fill="#181818" points="694.5,145.186,704.5,149.186,694.5,153.186,698.5,149.186" style="stroke:#181818;stroke-width:1.0;"/><line style="stroke:#181818;stroke-width:1.0;" x1="401.5" x2="700.5" y1="149.186" y2="149.186"/><text fill="#000000" font-family="sans-serif" font-size="13" lengthAdjust="spacing" textLength="281" x="408.5" y="143.377">Get available cars with enough seating capacity</text><path d="M320.5,164.186 L393.5,164.186 L393.5,173.892 L383.5,183.892 L320.5,183.892 L320.5,164.186 " fill="#EEEEEE" style="stroke:#000000;stroke-width:1.5;"/><rect fill="none" height="98.118" style="stroke:#000000;stroke-width:1.5;" width="389" x="320.5" y="164.186"/><text fill="#000000" font-family="sans-serif" font-size="13" font-weight="bold" lengthAdjust="spacing" textLength="28" x="335.5" y="179.083">loop</text><text fill="#000000" font-family="sans-serif" font-size="11" font-weight="bold" lengthAdjust="spacing" textLength="296" x="408.5" y="177.9449">[For each available car with enough seating capacity]</text><path d="M330.5,190.892 L393.5,190.892 L393.5,200.598 L383.5,210.598 L330.5,210.598 L330.5,190.892 " fill="#EEEEEE" style="stroke:#000000;stroke-width:1.5;"/><rect fill="none" height="64.412" style="stroke:#000000;stroke-width:1.5;" width="289" x="330.5" y="190.892"/><text fill="#000000" font-family="sans-serif" font-size="13" font-weight="bold" lengthAdjust="spacing" textLength="18" x="345.5" y="205.789">alt</text><text fill="#000000" font-family="sans-serif" font-size="11" font-weight="bold" lengthAdjust="spacing" textLength="206" x="408.5" y="204.6509">[if journey doesn't have car assigned]</text><line style="stroke:#181818;stroke-width:1.0;" x1="401.5" x2="443.5" y1="234.304" y2="234.304"/><line style="stroke:#181818;stroke-width:1.0;" x1="443.5" x2="443.5" y1="234.304" y2="247.304"/><line style="stroke:#181818;stroke-width:1.0;" x1="402.5" x2="443.5" y1="247.304" y2="247.304"/><polygon fill="#181818" points="412.5,243.304,402.5,247.304,412.5,251.304,408.5,247.304" style="stroke:#181818;stroke-width:1.0;"/><text fill="#000000" font-family="sans-serif" font-size="13" lengthAdjust="spacing" textLength="125" x="408.5" y="228.495">Assign car to journey</text><polygon fill="#181818" points="69,289.01,59,293.01,69,297.01,65,293.01" style="stroke:#181818;stroke-width:1.0;"/><line style="stroke:#181818;stroke-width:1.0;" x1="63" x2="289" y1="293.01" y2="293.01"/><text fill="#000000" font-family="sans-serif" font-size="13" lengthAdjust="spacing" textLength="203" x="75" y="287.201">Response to HTTP Sink Connector</text><!--SRC=[XP51JiGm34NtEOLthBX05qYe4Y2G41g60vZKqvf6JaZSZkRs92qCgJG2IzdOVby_tm6ZikM0el24Xn5RBq9MJQW6kQVHEqTnqtxqKnGwlILgCP4nQ9LdLAhtQqsulgb63UpeSwAa3JpJ4G99nzB3nofgjk85tNOQQ0Uo8_3X1m5EW2bnB_Zkw890Y_4CtvC2piYkx8B5cE38EW29d_e14g4MDnO3MjQJSTu7kFCH2Esm9Vy68HSwhNrsdf9SAGmuhmAhQ-gMvLB_V_vsGHPQ_JcqmkOSJNc_IHU-laD9FWKlMJcp3_lz2xooZF0zzj5qTE6MNm00]--></g></svg>